# xmcd
#
# Track frame offsets: 
#        150
#        14743
#        28824
#        42786
#        57529
#        67150
#        78831
#        89305
#        103557
#        118367
#        133051
#        147420
#        160695
#        174406
#        188029
#        202574
#        216464
#        230633
#        244049
#        252669
#        266422
#        279969
#        294643
#        307875
#        321184
#
# Disc length: 4486 seconds
#
# Revision: 0
# Processed by: cddbd v1.5.2PL0 Copyright (c) Steve Scherf et al.
# Submitted via: ExactAudioCopy v1.3
#
DISCID=75118419
DTITLE=Leadbelly - The Blues
DYEAR=1900
DGENRE=Blues
TTITLE0=Easy Rider
TTITLE1=Midnight Special
TTITLE2=Alabama Bound
TTITLE3=Worried Blues
TTITLE4=Cotton Fields
TTITLE5=Rock Island Line
TTITLE6=Blue Tail Fly
TTITLE7=Yellow Gal
TTITLE8=In New Orleans (House of the Rising Sun)
TTITLE9=John Hardy
TTITLE10=Alberta
TTITLE11=When the Boys Were Out on the Western Plains
TTITLE12=Where Did you Sleep Last Night
TTITLE13=New York City
TTITLE14=T. B. Blues
TTITLE15=Leaving Blues
TTITLE16=Don't you Love your Daddy no More?
TTITLE17=Grey Goose
TTITLE18=Black Betty
TTITLE19=Howard Hughes
TTITLE20=Take this Hammer
TTITLE21=Sail on Little Girl
TTITLE22=Good Morning Blues
TTITLE23=Packing trunk Blues
TTITLE24=The Bourgeois Blues
EXTD=
EXTT0=
EXTT1=
EXTT2=
EXTT3=
EXTT4=
EXTT5=
EXTT6=
EXTT7=
EXTT8=
EXTT9=
EXTT10=
EXTT11=
EXTT12=
EXTT13=
EXTT14=
EXTT15=
EXTT16=
EXTT17=
EXTT18=
EXTT19=
EXTT20=
EXTT21=
EXTT22=
EXTT23=
EXTT24=
PLAYORDER=
